# xmcd
#
# Track frame offsets:
#	150
#	11592
#	22272
#	36667
#	50133
#	64718
#	79810
#	91210
#	102634
#	115183
#	127255
#	137210
#	149416
#	158249
#	172277
#
# Disc length: 2422 seconds
#
# Revision: 1
# Processed by: cddbd v1.5.2PL0 Copyright (c) Steve Scherf et al.
# Submitted via: audiograbber 1.83.01
#
DISCID=e909740f
DTITLE=Various Artist - Gold Country CD2
DYEAR=2006
DGENRE=Country
TTITLE0=Tom T. Hall - Ravishing Rudy
TTITLE1=Johnny Cash - You Win Again
TTITLE2=B. J. Thomas - I am So Lonesome
TTITLE3=Pattie Page - Tennesee Waltz
TTITLE4=George Jones - A Good Year for the Roses
TTITLE5=Frankie Laine - Sixteen Tons
TTITLE6=Willie Nelson - Broken Promises
TTITLE7=Ray Price - Let it Rain, Let Her Cry
TTITLE8=Johnny Cash - I Walk the Line
TTITLE9=Roger Miller - King of the Road
TTITLE10=Dolly Parton - It wasn't God who made Honky Tonk Angels
TTITLE11=Lee Hazlewood - These Boots are made for Walking
TTITLE12=Willie Nelson - One Step Beyond
TTITLE13=Tom T. Hall - Week in a Country Jail
TTITLE14=Webb Pierce - In the Jailhouse Now
EXTD=Disk 2 of 2
EXTT0=
EXTT1=
EXTT2=
EXTT3=
EXTT4=
EXTT5=
EXTT6=
EXTT7=
EXTT8=
EXTT9=
EXTT10=
EXTT11=
EXTT12=
EXTT13=
EXTT14=
PLAYORDER=
